<svg width="24" height="24" xmlns="http://www.w3.org/2000/svg">

 <g>
  <title>background</title>
  <rect fill="none" id="canvas_background" height="402" width="582" y="-1" x="-1"/>
 </g>
 <g>
  <title>Layer 1</title>
  <path fill="#ffffff" id="svg_1" d="m13,20l0,-5l-2,0l0,5a2,2 0 0 1 -2,2l-3,0a2,2 0 0 1 -2,-2l0,-7.59l-0.3,0.3a1,1 0 1 1 -1.4,-1.42l9,-9a1,1 0 0 1 1.4,0l9,9a1,1 0 0 1 -1.4,1.42l-0.3,-0.3l0,7.59a2,2 0 0 1 -2,2l-3,0a2,2 0 0 1 -2,-2zm5,0l0,-9.59l-6,-6l-6,6l0,9.59l3,0l0,-5c0,-1.1 0.9,-2 2,-2l2,0a2,2 0 0 1 2,2l0,5l3,0z" class="heroicon-ui"/>
 </g>
</svg>